# xmcd
#
# Track frame offsets:
#	180
#	24033
#	37402
#	50405
#	69083
#	83838
#	102222
#	115892
#	125909
#	142737
#	157185
#
# Disc length: 2277 seconds
#
# Revision: 0
# Processed by: cddbd v1.5.1PL0 Copyright (c) Steve Scherf et al.
# Submitted via: dBpowerAMP V4.0
#
DISCID=8f08e30b
DTITLE=Patsy Bartholomew - Raise My Voice In Song
DYEAR=1900
DGENRE=Gospel
TTITLE0=Holy Is Your Name
TTITLE1=Mathew's Song
TTITLE2=Gentle Weaver God
TTITLE3=Worthy Is The Lamb
TTITLE4=Baby
TTITLE5=Sweet Mother
TTITLE6=Jerusalem My Happy Home
TTITLE7=Gospel People (Building Bridges)
TTITLE8=Ava Maria
TTITLE9=It's Hard To Be A Christian On The Freeway
TTITLE10=Raise My Voice In Song
EXTD=
EXTT0=
EXTT1=
EXTT2=
EXTT3=
EXTT4=
EXTT5=
EXTT6=
EXTT7=
EXTT8=
EXTT9=
EXTT10=
PLAYORDER=
